# xmcd
#
# Track frame offsets: 
#        150
#        15406
#        31374
#        46285
#
# Disc length: 826 seconds
#
# Revision: 0
# Processed by: cddbd v1.5.2PL0 Copyright (c) Steve Scherf et al.
# Submitted via: ExactAudioCopy v1.3
#
DISCID=24033804
DTITLE=Yuka Ozaki - Music
DYEAR=2019
DGENRE=JPop
TTITLE0=music
TTITLE1=sakae
TTITLE2=c.a.n
TTITLE3=夜の来ない街
EXTD=
EXTT0=
EXTT1=
EXTT2=
EXTT3=
PLAYORDER=
